<svg width="366" height="95" viewBox="0 0 366 95" fill="none" xmlns="http://www.w3.org/2000/svg">
<g filter="url(#filter0_i_91_6)">
<path d="M68.3604 37.6364C68.3604 45.5672 66.8571 52.3144 63.8505 57.8778C60.8675 63.4413 56.7956 67.6908 51.6346 70.6264C46.4973 73.5384 40.7208 74.9943 34.305 74.9943C27.842 74.9943 22.0418 73.5265 16.9045 70.5909C11.7672 67.6553 7.70703 63.4058 4.72408 57.8423C1.74112 52.2789 0.249645 45.5436 0.249645 37.6364C0.249645 29.7055 1.74112 22.9583 4.72408 17.3949C7.70703 11.8314 11.7672 7.59375 16.9045 4.68182C22.0418 1.74621 27.842 0.278406 34.305 0.278406C40.7208 0.278406 46.4973 1.74621 51.6346 4.68182C56.7956 7.59375 60.8675 11.8314 63.8505 17.3949C66.8571 22.9583 68.3604 29.7055 68.3604 37.6364ZM52.771 37.6364C52.771 32.4991 52.0015 28.1667 50.4627 24.6392C48.9476 21.1117 46.805 18.4366 44.0352 16.6136C41.2653 14.7907 38.0219 13.8793 34.305 13.8793C30.5882 13.8793 27.3448 14.7907 24.5749 16.6136C21.805 18.4366 19.6507 21.1117 18.1119 24.6392C16.5967 28.1667 15.8391 32.4991 15.8391 37.6364C15.8391 42.7737 16.5967 47.1061 18.1119 50.6335C19.6507 54.161 21.805 56.8362 24.5749 58.6591C27.3448 60.482 30.5882 61.3935 34.305 61.3935C38.0219 61.3935 41.2653 60.482 44.0352 58.6591C46.805 56.8362 48.9476 54.161 50.4627 50.6335C52.0015 47.1061 52.771 42.7737 52.771 37.6364ZM74.4666 94.4545V19.4545H89.3814V28.6165H90.0561C90.719 27.1487 91.6778 25.6572 92.9325 24.142C94.2109 22.6032 95.8681 21.3248 97.9041 20.3068C99.9638 19.2652 102.521 18.7443 105.575 18.7443C109.552 18.7443 113.221 19.786 116.583 21.8693C119.945 23.929 122.632 27.0421 124.644 31.2088C126.656 35.3518 127.663 40.5483 127.663 46.7983C127.663 52.8826 126.68 58.0199 124.715 62.2102C122.774 66.3769 120.122 69.5374 116.761 71.6918C113.423 73.8224 109.682 74.8878 105.539 74.8878C102.603 74.8878 100.106 74.4025 98.0462 73.4318C96.0102 72.4612 94.3411 71.242 93.0391 69.7741C91.737 68.2827 90.7427 66.7794 90.0561 65.2642H89.5945V94.4545H74.4666ZM89.2749 46.7273C89.2749 49.9706 89.7247 52.7997 90.6243 55.2145C91.5239 57.6293 92.826 59.5114 94.5305 60.8608C96.2351 62.1866 98.3066 62.8494 100.745 62.8494C103.207 62.8494 105.29 62.1747 106.995 60.8253C108.7 59.4522 109.99 57.5582 110.866 55.1435C111.765 52.705 112.215 49.8996 112.215 46.7273C112.215 43.5786 111.777 40.8087 110.901 38.4176C110.025 36.0265 108.735 34.1562 107.031 32.8068C105.326 31.4574 103.231 30.7827 100.745 30.7827C98.2829 30.7827 96.1996 31.4337 94.495 32.7358C92.8142 34.0379 91.5239 35.8845 90.6243 38.2756C89.7247 40.6667 89.2749 43.4839 89.2749 46.7273ZM157.606 75.0653C151.995 75.0653 147.165 73.929 143.117 71.6562C139.093 69.3598 135.991 66.1165 133.813 61.9261C131.635 57.7121 130.546 52.7287 130.546 46.9759C130.546 41.3651 131.635 36.4408 133.813 32.2031C135.991 27.9654 139.057 24.6629 143.011 22.2955C146.988 19.928 151.652 18.7443 157.002 18.7443C160.601 18.7443 163.951 19.3243 167.052 20.4844C170.177 21.6207 172.899 23.3371 175.219 25.6335C177.563 27.9299 179.386 30.8182 180.688 34.2983C181.99 37.7547 182.641 41.803 182.641 46.4432V50.598H136.583V41.223H168.401C168.401 39.045 167.928 37.1155 166.981 35.4347C166.034 33.7538 164.72 32.4399 163.039 31.4929C161.382 30.5223 159.452 30.0369 157.251 30.0369C154.954 30.0369 152.918 30.5696 151.143 31.6349C149.391 32.6766 148.018 34.0852 147.023 35.8608C146.029 37.6127 145.52 39.5658 145.496 41.7202V50.6335C145.496 53.3324 145.994 55.6643 146.988 57.6293C148.006 59.5942 149.438 61.1094 151.285 62.1747C153.131 63.2401 155.321 63.7727 157.854 63.7727C159.535 63.7727 161.074 63.536 162.471 63.0625C163.868 62.589 165.063 61.8788 166.058 60.9318C167.052 59.9848 167.809 58.8248 168.33 57.4517L182.322 58.375C181.612 61.7367 180.156 64.6723 177.954 67.1818C175.776 69.6676 172.959 71.6089 169.502 73.0057C166.069 74.3788 162.104 75.0653 157.606 75.0653ZM202.641 42.4659V74H187.513V19.4545H201.931V29.0781H202.57C203.778 25.9058 205.802 23.3963 208.643 21.5497C211.484 19.6795 214.928 18.7443 218.977 18.7443C222.764 18.7443 226.067 19.5729 228.884 21.2301C231.701 22.8873 233.891 25.2547 235.454 28.3324C237.016 31.3864 237.798 35.0322 237.798 39.2699V74H222.67V41.9688C222.693 38.6307 221.841 36.0265 220.113 34.1562C218.385 32.2623 216.005 31.3153 212.975 31.3153C210.939 31.3153 209.14 31.7533 207.577 32.6293C206.039 33.5052 204.831 34.7836 203.955 36.4645C203.103 38.1217 202.665 40.1222 202.641 42.4659Z" fill="#E1E1E1"/>
<path d="M237.645 13.9503V1.27273H297.375V13.9503H275.109V74H259.911V13.9503H237.645ZM365.724 37.6364C365.724 45.5672 364.22 52.3144 361.214 57.8778C358.231 63.4413 354.159 67.6908 348.998 70.6264C343.861 73.5384 338.084 74.9943 331.668 74.9943C325.205 74.9943 319.405 73.5265 314.268 70.5909C309.13 67.6553 305.07 63.4058 302.087 57.8423C299.104 52.2789 297.613 45.5436 297.613 37.6364C297.613 29.7055 299.104 22.9583 302.087 17.3949C305.07 11.8314 309.13 7.59375 314.268 4.68182C319.405 1.74621 325.205 0.278406 331.668 0.278406C338.084 0.278406 343.861 1.74621 348.998 4.68182C354.159 7.59375 358.231 11.8314 361.214 17.3949C364.22 22.9583 365.724 29.7055 365.724 37.6364ZM350.134 37.6364C350.134 32.4991 349.365 28.1667 347.826 24.6392C346.311 21.1117 344.168 18.4366 341.398 16.6136C338.629 14.7907 335.385 13.8793 331.668 13.8793C327.951 13.8793 324.708 14.7907 321.938 16.6136C319.168 18.4366 317.014 21.1117 315.475 24.6392C313.96 28.1667 313.202 32.4991 313.202 37.6364C313.202 42.7737 313.96 47.1061 315.475 50.6335C317.014 54.161 319.168 56.8362 321.938 58.6591C324.708 60.482 327.951 61.3935 331.668 61.3935C335.385 61.3935 338.629 60.482 341.398 58.6591C344.168 56.8362 346.311 54.161 347.826 50.6335C349.365 47.1061 350.134 42.7737 350.134 37.6364Z" fill="#00D0C3"/>
</g>
<defs>
<filter id="filter0_i_91_6" x="0.249756" y="0.278442" width="365.474" height="99.1761" filterUnits="userSpaceOnUse" color-interpolation-filters="sRGB">
<feFlood flood-opacity="0" result="BackgroundImageFix"/>
<feBlend mode="normal" in="SourceGraphic" in2="BackgroundImageFix" result="shape"/>
<feColorMatrix in="SourceAlpha" type="matrix" values="0 0 0 0 0 0 0 0 0 0 0 0 0 0 0 0 0 0 127 0" result="hardAlpha"/>
<feOffset dy="5"/>
<feGaussianBlur stdDeviation="2.5"/>
<feComposite in2="hardAlpha" operator="arithmetic" k2="-1" k3="1"/>
<feColorMatrix type="matrix" values="0 0 0 0 1 0 0 0 0 1 0 0 0 0 1 0 0 0 0.25 0"/>
<feBlend mode="color-dodge" in2="shape" result="effect1_innerShadow_91_6"/>
</filter>
</defs>
</svg>
