<svg width="187" height="48" viewBox="0 0 187 48" fill="none" xmlns="http://www.w3.org/2000/svg">
<g filter="url(#filter0_i_91_6)">
<path d="M34.9302 18.8182C34.9302 22.7836 34.1786 26.1572 32.6752 28.9389C31.1838 31.7206 29.1478 33.8454 26.5673 35.3132C23.9986 36.7692 21.1104 37.4972 17.9025 37.4972C14.671 37.4972 11.7709 36.7633 9.20224 35.2955C6.63358 33.8277 4.60352 31.7029 3.11204 28.9212C1.62056 26.1394 0.874822 22.7718 0.874822 18.8182C0.874822 14.8527 1.62056 11.4792 3.11204 8.69744C4.60352 5.91572 6.63358 3.79687 9.20224 2.34091C11.7709 0.873105 14.671 0.139203 17.9025 0.139203C21.1104 0.139203 23.9986 0.873105 26.5673 2.34091C29.1478 3.79687 31.1838 5.91572 32.6752 8.69744C34.1786 11.4792 34.9302 14.8527 34.9302 18.8182ZM27.1355 18.8182C27.1355 16.2495 26.7508 14.0833 25.9814 12.3196C25.2238 10.5559 24.1525 9.21828 22.7676 8.30682C21.3826 7.39536 19.7609 6.93963 17.9025 6.93963C16.0441 6.93963 14.4224 7.39536 13.0375 8.30682C11.6525 9.21828 10.5753 10.5559 9.80593 12.3196C9.04835 14.0833 8.66957 16.2495 8.66957 18.8182C8.66957 21.3868 9.04835 23.553 9.80593 25.3168C10.5753 27.0805 11.6525 28.4181 13.0375 29.3295C14.4224 30.241 16.0441 30.6967 17.9025 30.6967C19.7609 30.6967 21.3826 30.241 22.7676 29.3295C24.1525 28.4181 25.2238 27.0805 25.9814 25.3168C26.7508 23.553 27.1355 21.3868 27.1355 18.8182ZM38.4833 47.2273V9.72727H45.9407V14.3082H46.2781C46.6095 13.5743 47.0889 12.8286 47.7163 12.071C48.3555 11.3016 49.1841 10.6624 50.2021 10.1534C51.2319 9.63258 52.5103 9.37216 54.0373 9.37216C56.0259 9.37216 57.8607 9.89299 59.5415 10.9347C61.2224 11.9645 62.5659 13.5211 63.5721 15.6044C64.5782 17.6759 65.0813 20.2741 65.0813 23.3991C65.0813 26.4413 64.5901 29.0099 63.6076 31.1051C62.637 33.1884 61.3112 34.7687 59.6303 35.8459C57.9613 36.9112 56.091 37.4439 54.0195 37.4439C52.5517 37.4439 51.3029 37.2012 50.2731 36.7159C49.2551 36.2306 48.4206 35.621 47.7695 34.8871C47.1185 34.1413 46.6213 33.3897 46.2781 32.6321H46.0472V47.2273H38.4833ZM45.8874 23.3636C45.8874 24.9853 46.1123 26.3999 46.5621 27.6072C47.012 28.8146 47.663 29.7557 48.5153 30.4304C49.3675 31.0933 50.4033 31.4247 51.6225 31.4247C52.8536 31.4247 53.8952 31.0874 54.7475 30.4126C55.5998 29.7261 56.2449 28.7791 56.6829 27.5717C57.1327 26.3525 57.3576 24.9498 57.3576 23.3636C57.3576 21.7893 57.1386 20.4044 56.7006 19.2088C56.2627 18.0133 55.6175 17.0781 54.7653 16.4034C53.913 15.7287 52.8654 15.3913 51.6225 15.3913C50.3915 15.3913 49.3498 15.7169 48.4975 16.3679C47.6571 17.0189 47.012 17.9422 46.5621 19.1378C46.1123 20.3333 45.8874 21.742 45.8874 23.3636ZM80.5529 37.5327C77.7475 37.5327 75.3327 36.9645 73.3086 35.8281C71.2963 34.6799 69.7456 33.0582 68.6566 30.9631C67.5676 28.8561 67.0231 26.3643 67.0231 23.4879C67.0231 20.6825 67.5676 18.2204 68.6566 16.1016C69.7456 13.9827 71.2785 12.3314 73.2553 11.1477C75.244 9.96401 77.5759 9.37216 80.2511 9.37216C82.0503 9.37216 83.7253 9.66217 85.2759 10.2422C86.8384 10.8104 88.1997 11.6686 89.3597 12.8168C90.5316 13.965 91.4431 15.4091 92.0941 17.1491C92.7451 18.8774 93.0707 20.9015 93.0707 23.2216V25.299H70.0415V20.6115H85.9506C85.9506 19.5225 85.7139 18.5578 85.2404 17.7173C84.7669 16.8769 84.11 16.2199 83.2695 15.7464C82.4409 15.2611 81.4762 15.0185 80.3754 15.0185C79.2272 15.0185 78.2092 15.2848 77.3214 15.8175C76.4454 16.3383 75.7589 17.0426 75.2617 17.9304C74.7646 18.8063 74.5101 19.7829 74.4982 20.8601V25.3168C74.4982 26.6662 74.7468 27.8321 75.244 28.8146C75.753 29.7971 76.4691 30.5547 77.3924 31.0874C78.3157 31.62 79.4106 31.8864 80.6772 31.8864C81.5176 31.8864 82.2871 31.768 82.9854 31.5312C83.6838 31.2945 84.2816 30.9394 84.7788 30.4659C85.2759 29.9924 85.6547 29.4124 85.9151 28.7259L92.9109 29.1875C92.5558 30.8684 91.8278 32.3362 90.7269 33.5909C89.6379 34.8338 88.2293 35.8045 86.5011 36.5028C84.7847 37.1894 82.802 37.5327 80.5529 37.5327ZM103.571 21.233V37H96.0067V9.72727H103.216V14.5391H103.535C104.139 12.9529 105.151 11.6982 106.571 10.7749C107.992 9.83973 109.714 9.37216 111.738 9.37216C113.632 9.37216 115.283 9.78646 116.692 10.6151C118.101 11.4437 119.196 12.6274 119.977 14.1662C120.758 15.6932 121.149 17.5161 121.149 19.6349V37H113.585V20.9844C113.597 19.3153 113.171 18.0133 112.306 17.0781C111.442 16.1312 110.253 15.6577 108.738 15.6577C107.72 15.6577 106.82 15.8767 106.039 16.3146C105.269 16.7526 104.666 17.3918 104.228 18.2322C103.801 19.0608 103.583 20.0611 103.571 21.233Z" fill="#E1E1E1"/>
<path d="M121.572 6.97514V0.636363H151.438V6.97514H140.305V37H132.705V6.97514H121.572ZM186.112 18.8182C186.112 22.7836 185.36 26.1572 183.857 28.9389C182.365 31.7206 180.329 33.8454 177.749 35.3132C175.18 36.7692 172.292 37.4972 169.084 37.4972C165.853 37.4972 162.953 36.7633 160.384 35.2955C157.815 33.8277 155.785 31.7029 154.294 28.9212C152.802 26.1394 152.056 22.7718 152.056 18.8182C152.056 14.8527 152.802 11.4792 154.294 8.69744C155.785 5.91572 157.815 3.79687 160.384 2.34091C162.953 0.873105 165.853 0.139203 169.084 0.139203C172.292 0.139203 175.18 0.873105 177.749 2.34091C180.329 3.79687 182.365 5.91572 183.857 8.69744C185.36 11.4792 186.112 14.8527 186.112 18.8182ZM178.317 18.8182C178.317 16.2495 177.932 14.0833 177.163 12.3196C176.405 10.5559 175.334 9.21828 173.949 8.30682C172.564 7.39536 170.943 6.93963 169.084 6.93963C167.226 6.93963 165.604 7.39536 164.219 8.30682C162.834 9.21828 161.757 10.5559 160.988 12.3196C160.23 14.0833 159.851 16.2495 159.851 18.8182C159.851 21.3868 160.23 23.553 160.988 25.3168C161.757 27.0805 162.834 28.4181 164.219 29.3295C165.604 30.241 167.226 30.6967 169.084 30.6967C170.943 30.6967 172.564 30.241 173.949 29.3295C175.334 28.4181 176.405 27.0805 177.163 25.3168C177.932 23.553 178.317 21.3868 178.317 18.8182Z" fill="#00D0C3"/>
</g>
<defs>
<filter id="filter0_i_91_6" x="0.874756" y="0.13916" width="185.237" height="52.0881" filterUnits="userSpaceOnUse" color-interpolation-filters="sRGB">
<feFlood flood-opacity="0" result="BackgroundImageFix"/>
<feBlend mode="normal" in="SourceGraphic" in2="BackgroundImageFix" result="shape"/>
<feColorMatrix in="SourceAlpha" type="matrix" values="0 0 0 0 0 0 0 0 0 0 0 0 0 0 0 0 0 0 127 0" result="hardAlpha"/>
<feOffset dy="5"/>
<feGaussianBlur stdDeviation="2.5"/>
<feComposite in2="hardAlpha" operator="arithmetic" k2="-1" k3="1"/>
<feColorMatrix type="matrix" values="0 0 0 0 1 0 0 0 0 1 0 0 0 0 1 0 0 0 0.25 0"/>
<feBlend mode="color-dodge" in2="shape" result="effect1_innerShadow_91_6"/>
</filter>
</defs>
</svg>
